# xmcd
#
# Track frame offsets:
# 150
# 16772
# 32482
# 52222
# 73247
# 89647
# 109800
# 126582
# 174375
# 188622
# 214527
# 233690
#
# Disc length: 3706 seconds
#
#
# Revision: 2
# Processed by: cddbd v1.5.2PL0 Copyright (c) Steve Scherf et al.
# Submitted via: FreeRIP 2.944 
#
DISCID=a50e780c
DTITLE=Duke Ellinton - Duke Ellinton Jazz Legends
DYEAR=2000
DGENRE=Jazz
TTITLE0=I Let A Song Out Of My Heart
TTITLE1=Smada
TTITLE2=Black Butterfly
TTITLE3=Waht Am I Here For?
TTITLE4=Pyramid
TTITLE5=Black And Tan Fantasy
TTITLE6=Boo Dah
TTITLE7=La Plus Belle Africaine
TTITLE8=Jump For Joy
TTITLE9=Taffy Twist
TTITLE10=Isfahan
TTITLE11=In A Sentimental Mood [Extended Version]
EXTD=
EXTT0=
EXTT1=
EXTT2=
EXTT3=
EXTT4=
EXTT5=
EXTT6=
EXTT7=
EXTT8=
EXTT9=
EXTT10=
EXTT11=
PLAYORDER=
